# xmcd
#
# Track frame offsets: 
#        150
#        23153
#        45060
#        68885
#        91098
#        108260
#        123975
#        145300
#        160843
#        177480
#        200288
#
# Disc length: 2992 seconds
#
# Revision: 2
# Processed by: cddbd v1.5.2PL0 Copyright (c) Steve Scherf et al.
# Submitted via: ExactAudioCopyFreeDBPlugin 1.0
#
DISCID=870bae0b
DTITLE=Angelo Badalamenti - Music From Twin Peaks
DYEAR=1990
DGENRE=Soundtrack
TTITLE0=Twin Peaks Theme
TTITLE1=Laura Palmer's Theme
TTITLE2=Audrey's Dance
TTITLE3=The Nightingale (Vocal by Julee Cruise)
TTITLE4=Freshly Squeezed
TTITLE5=The Bookhouse Boys
TTITLE6=Into The Night (Vocal by Julee Cruise)
TTITLE7=Night Life In Twin Peaks
TTITLE8=Dance Of The Dream Man
TTITLE9=Love Theme From Twin Peaks
TTITLE10=Falling (Vocal by Julee Cruise)
EXTD=
EXTT0=
EXTT1=
EXTT2=
EXTT3=
EXTT4=
EXTT5=
EXTT6=
EXTT7=
EXTT8=
EXTT9=
EXTT10=
PLAYORDER=
